<svg xmlns="http://www.w3.org/2000/svg" viewBox="0 0 48 48" fill="none">
  <path d="M33.2 8.9A8.3 8.3 0 0 1 30.4 3h-6.3v28.4a5 5 0 0 1-5 4.6 5 5 0 0 1-5-5 5 5 0 0 1 5-5c.5 0 1 .1 1.5.2V19.7a11.5 11.5 0 0 0-1.5-.1 11.4 11.4 0 0 0-11.4 11.4 11.4 11.4 0 0 0 11.4 11.4A11.4 11.4 0 0 0 30.5 31V16.3A14.6 14.6 0 0 0 39 19V12.6a8.3 8.3 0 0 1-5.8-3.7z" fill="#fe2c55"/>
  <path d="M34.7 10.4A8.3 8.3 0 0 1 31.9 4.5h-6.3v28.4a5 5 0 0 1-5 4.6 5 5 0 0 1-5-5 5 5 0 0 1 5-5c.5 0 1 .1 1.5.2V21.2a11.5 11.5 0 0 0-1.5-.1A11.4 11.4 0 0 0 9.2 32.5a11.4 11.4 0 0 0 11.4 11.4A11.4 11.4 0 0 0 32 32.5V17.8a14.6 14.6 0 0 0 8.5 2.7v-6.4a8.3 8.3 0 0 1-5.8-3.7z" fill="#25f4ee"/>
  <path d="M34 9.6A8.3 8.3 0 0 1 31.2 3.7h-6.3v28.4a5 5 0 0 1-5 4.6 5 5 0 0 1-5-5 5 5 0 0 1 5-5c.5 0 1 .1 1.5.2V20.4a11.5 11.5 0 0 0-1.5-.1A11.4 11.4 0 0 0 8.5 31.7a11.4 11.4 0 0 0 11.4 11.4 11.4 11.4 0 0 0 11.4-11.4V17a14.6 14.6 0 0 0 8.5 2.7v-6.4a8.3 8.3 0 0 1-5.8-3.7z" fill="white"/>
</svg>
